<svg xmlns="http://www.w3.org/2000/svg" width="512" height="512" viewBox="18 18 72 72">
<!-- Generated by tools/branding/generate_app_icon.py -->
<defs><radialGradient id="g0" gradientUnits="userSpaceOnUse" cx="54" cy="46" r="62"><stop offset="0" stop-color="#4A2A5A" stop-opacity="1"/><stop offset="0.5" stop-color="#1E1226" stop-opacity="1"/><stop offset="1" stop-color="#120A17" stop-opacity="1"/></radialGradient><radialGradient id="g6" gradientUnits="userSpaceOnUse" cx="70.97" cy="37.03" r="18"><stop offset="0" stop-color="#EC8FC0" stop-opacity="0.33"/><stop offset="1" stop-color="#EC8FC0" stop-opacity="0"/></radialGradient><radialGradient id="g7" gradientUnits="userSpaceOnUse" cx="54" cy="54" r="24"><stop offset="0" stop-color="#C94F9C" stop-opacity="0.25"/><stop offset="1" stop-color="#C94F9C" stop-opacity="0"/></radialGradient><linearGradient id="g13" gradientUnits="userSpaceOnUse" x1="30" y1="30" x2="80" y2="80"><stop offset="0" stop-color="#F6D9E6" stop-opacity="1"/><stop offset="0.5" stop-color="#E79ECB" stop-opacity="1"/><stop offset="1" stop-color="#B98CD9" stop-opacity="1"/></linearGradient><linearGradient id="g14" gradientUnits="userSpaceOnUse" x1="46" y1="44" x2="66" y2="64"><stop offset="0" stop-color="#FFFFFF" stop-opacity="1"/><stop offset="1" stop-color="#F6D9E6" stop-opacity="1"/></linearGradient><linearGradient id="g15" gradientUnits="userSpaceOnUse" x1="64.97" y1="43.03" x2="76.97" y2="31.03"><stop offset="0" stop-color="#E070AE" stop-opacity="1"/><stop offset="0.55" stop-color="#EC8FC0" stop-opacity="1"/><stop offset="1" stop-color="#FFE6F2" stop-opacity="1"/></linearGradient><linearGradient id="g16" gradientUnits="userSpaceOnUse" x1="64.97" y1="43.03" x2="76.97" y2="31.03"><stop offset="0" stop-color="#E070AE" stop-opacity="1"/><stop offset="0.55" stop-color="#EC8FC0" stop-opacity="1"/><stop offset="1" stop-color="#FFE6F2" stop-opacity="1"/></linearGradient><linearGradient id="g17" gradientUnits="userSpaceOnUse" x1="64.97" y1="43.03" x2="76.97" y2="31.03"><stop offset="0" stop-color="#E070AE" stop-opacity="1"/><stop offset="0.55" stop-color="#EC8FC0" stop-opacity="1"/><stop offset="1" stop-color="#FFE6F2" stop-opacity="1"/></linearGradient><linearGradient id="g18" gradientUnits="userSpaceOnUse" x1="64.97" y1="43.03" x2="76.97" y2="31.03"><stop offset="0" stop-color="#E070AE" stop-opacity="1"/><stop offset="0.55" stop-color="#EC8FC0" stop-opacity="1"/><stop offset="1" stop-color="#FFE6F2" stop-opacity="1"/></linearGradient><linearGradient id="g19" gradientUnits="userSpaceOnUse" x1="64.97" y1="43.03" x2="76.97" y2="31.03"><stop offset="0" stop-color="#E070AE" stop-opacity="1"/><stop offset="0.55" stop-color="#EC8FC0" stop-opacity="1"/><stop offset="1" stop-color="#FFE6F2" stop-opacity="1"/></linearGradient></defs>
<path d="M0,0h108v108h-108z" fill="url(#g0)"/>
<path d="M20.45,91.22C13.89,81.84 21.02,70.74 28.19,71.32L29.24,76L33.81,74.57C37.9,80.49 31.85,92.22 20.45,91.22Z" fill="#A57FD6" opacity="0.06"/>
<path d="M20.88,92.19C27.77,83.05 40.53,86.4 42.19,93.4L38.08,95.84L40.84,99.75C36.48,105.46 23.46,103.34 20.88,92.19Z" fill="#A57FD6" opacity="0.06"/>
<path d="M20.09,92.9C30.92,96.62 31.67,109.8 25.53,113.54L21.93,110.38L19.07,114.22C12.29,111.83 10.28,98.79 20.09,92.9Z" fill="#A57FD6" opacity="0.06"/>
<path d="M19.18,92.37C18.98,103.81 6.68,108.59 1.22,103.91L3.12,99.52L-1.42,97.98C-1.25,90.8 10.54,84.86 19.18,92.37Z" fill="#A57FD6" opacity="0.06"/>
<path d="M19.4,91.33C8.45,94.68 0.1,84.46 2.87,77.82L7.63,78.27L7.69,73.48C14.58,71.42 23.87,80.79 19.4,91.33Z" fill="#A57FD6" opacity="0.06"/>
<path d="M52.97,37.03a18,18 0 1 1 36,0a18,18 0 1 1 -36,0Z" fill="url(#g6)"/>
<path d="M30,54a24,24 0 1 1 48,0a24,24 0 1 1 -48,0Z" fill="url(#g7)"/>
<path d="M30.5,30C29.25,31.25 27.24,30.41 27.13,29.31L27.82,29.02L27.48,28.37C28.27,27.59 30.35,28.24 30.5,30Z" fill="#EC8FC0" opacity="0.55"/>
<path d="M82,70.5C82.14,72.05 80.43,72.94 79.62,72.38L79.82,71.76L79.18,71.62C79.1,70.64 80.72,69.61 82,70.5Z" fill="#EC8FC0" opacity="0.45"/>
<path d="M25,74C25.96,74.96 25.32,76.49 24.47,76.57L24.25,76.05L23.75,76.31C23.15,75.71 23.65,74.12 25,74Z" fill="#EC8FC0" opacity="0.35"/>
<path d="M77,84C78.14,83.9 78.79,85.15 78.38,85.74L77.92,85.6L77.82,86.07C77.1,86.13 76.34,84.94 77,84Z" fill="#EC8FC0" opacity="0.3"/>
<path d="M47.02,73.17A20.4,20.4 0 0 1 37.29,42.3" fill="none" stroke="#FFFFFF" stroke-width="0.5" stroke-linecap="round" opacity="0.35"/>
<path d="M77.29,48.19A24,24 0 1 1 59.81,30.71" fill="none" stroke="url(#g13)" stroke-width="3.6" stroke-linecap="round"/>
<path d="M50.02,44.7L64.05,52.8Q66.12,54 64.05,55.2L50.02,63.3Q47.94,64.5 47.94,62.1L47.94,45.9Q47.94,43.5 50.02,44.7Z" fill="url(#g14)"/>
<path d="M71.61,36.39C70.11,32.29 73.45,29.29 76.03,30.21L75.96,32.04L77.79,31.97C78.71,34.55 75.71,37.89 71.61,36.39Z" fill="url(#g15)"/>
<path d="M71.77,37.44C75.22,34.75 79.1,36.99 79.02,39.74L77.26,40.23L77.89,41.95C75.72,43.62 71.62,41.81 71.77,37.44Z" fill="url(#g16)"/>
<path d="M70.83,37.92C74.45,40.36 73.51,44.75 70.88,45.52L69.87,44L68.43,45.13C66.17,43.58 66.63,39.12 70.83,37.92Z" fill="url(#g17)"/>
<path d="M70.08,37.17C68.88,41.37 64.42,41.83 62.87,39.57L64,38.13L62.48,37.12C63.25,34.49 67.64,33.55 70.08,37.17Z" fill="url(#g18)"/>
<path d="M70.56,36.23C66.19,36.38 64.38,32.28 66.05,30.11L67.77,30.74L68.26,28.98C71.01,28.9 73.25,32.78 70.56,36.23Z" fill="url(#g19)"/>
<path d="M69.37,37.03a1.6,1.6 0 1 1 3.2,0a1.6,1.6 0 1 1 -3.2,0Z" fill="#C94F9C"/>
</svg>
